<svg xmlns="http://www.w3.org/2000/svg" width="1024" height="1024"><path fill="#3b4551" d="M298 238q3.368.082 6.738.027l3.733-.037q3.87-.053 7.742-.117l3.713-.033 3.388-.051C326 238 326 238 328 240c.104 2.515.09 4.907-.023 7.414l-.076 2.211c-.083 2.334-.18 4.667-.276 7q-.087 2.37-.172 4.742-.212 5.817-.453 11.633c-2.33 1.165-3.638 1.11-6.231 1.082l-2.651-.02-2.876-.035-6.023-.037q-4.75-.036-9.5-.086c-3.054-.03-6.11-.048-9.164-.064l-2.839-.04c-8.473-.033-14.682 1.13-21.716 6.2l-3 1c-1.118 2.118-1.118 2.118-2 5l-.74 1.953c-1.981 5.422-2.69 10.093-2.638 15.841l-.013 2.55c-.01 2.809 0 5.617.01 8.425q-.005 3.058-.014 6.115c-.013 5.593-.006 11.185.003 16.778.007 6.035-.004 12.07-.012 18.105a17900 17900 0 0 0-.003 33.409q.011 15.434.006 30.866l-.001 2.07-.003 8.315c-.01 25.996 0 51.992.015 77.988q.021 34.633-.001 69.265a79718 79718 0 0 0-.01 86.144v2.064q.005 15.421-.008 30.843-.013 17.54.01 35.077.013 8.949.001 17.898-.013 8.193.012 16.386.005 2.963-.006 5.925c-.3 18.137-.3 18.137 8.556 33.358 5.207 4.609 10.683 5.756 17.413 5.729l3.516-.007 3.923-.021 4.253-.01q4.744-.01 9.49-.026a10776 10776 0 0 1 31.235-.047c29.005-.02 58.01.116 87.014.242a93743 93743 0 0 0 48.204.197l28.638.116q21.298.088 42.596.188 22.143.103 44.288.183 13.53.049 27.059.12 9.202.048 18.406.074 5.286.014 10.572.048c3.83.023 7.658.034 11.487.042l3.313.029c15.98.262 15.98.262 29.816-6.482 10.165-11.026 8.887-25.48 8.729-39.6l-.033-5.317q-.035-5.688-.085-11.378c-.052-6.001-.082-12.003-.108-18.005-.076-17.058-.165-34.116-.308-51.174q-.12-14.158-.16-28.316c-.014-4.987-.042-9.974-.101-14.96q-.08-7.028-.076-14.056a353 353 0 0 0-.053-5.147c-.245-14.569-.245-14.569 4.293-19.693l1.913-1.67c1.881-1.446 1.881-1.446 2.602-4.434l3-1c1.476-1.456 1.476-1.456 2.938-3.312 3.752-4.445 7.816-8.502 11.974-12.562 2.324-2.286 4.272-4.402 6.088-7.126h2a100346 100346 0 0 1 .111 97.064q.015 16.168.043 32.335.028 16.605.034 33.209.003 9.32.023 18.64.02 8.78.015 17.56 0 3.216.012 6.43c.076 22.015-2.024 39.715-17.777 56.461C701.898 839.882 689.47 845.228 675 847l-3 1c-2.162.092-4.327.12-6.49.119-.666 0-1.331 0-2.017.002q-3.368-.002-6.735-.012l-4.86-.001c-4.463-.001-8.927-.01-13.391-.018-4.81-.008-9.62-.01-14.43-.014-11.628-.01-23.254-.03-34.88-.05l-16.432-.028a101722 101722 0 0 1-68.82-.13l-3.56-.008c-19.017-.04-38.033-.063-57.049-.08q-29.295-.024-58.59-.094c-10.963-.026-21.925-.045-32.888-.047q-14.012-.003-28.024-.052c-4.762-.016-9.523-.027-14.285-.02q-6.555.01-13.11-.032a522 522 0 0 0-4.71.002c-19.15.087-36.156-3.625-50.448-17.193C234.806 823.692 226 813.722 226 804l-2-1c-1.352-5.786-1.145-12.022-1.134-17.937l-.007-2.596q-.009-4.29-.006-8.582l-.011-6.228q-.014-8.545-.017-17.091-.007-9.221-.022-18.443-.027-21.208-.037-42.415l-.015-20.974a164683 164683 0 0 1-.042-76.343v-2.257l-.004-11.321v-2.27q-.014-36.42-.065-72.84a63792 63792 0 0 1-.059-87.636c-.002-11.163-.018-22.326-.038-33.489q-.03-16.84-.017-33.68c.005-6.078.003-12.156-.016-18.234q-.026-8.355-.001-16.71.004-3.014-.014-6.027c-.09-16.17 1.543-29.966 10.505-43.927l1.367-2.172c7.942-11.577 21.126-18.951 34.555-22.308 5.195-.877 10.413-1.1 15.672-1.31 10.5-.65 10.5-.65 13.406-.21"/><path fill="#3b4551" d="M732 388v2l1.656.666c3.096 1.762 5.382 4.144 7.844 6.674l1.568 1.584c1.65 1.666 3.291 3.34 4.932 5.014q2.462 2.505 4.932 5.002a782 782 0 0 1 3.058 3.112c2.03 2.06 4.018 3.954 6.354 5.665L764 419v2l1.763.773c2.463 1.351 4.065 2.842 6.022 4.852l2.108 2.14 2.17 2.235q2.139 2.19 4.285 4.375l1.906 1.96c1.847 1.857 1.847 1.857 4.746 3.665v2l1.61.617c3.419 1.978 5.903 4.686 8.64 7.508l1.68 1.707q2.04 2.079 4.07 4.168l-1.137 1.32-1.55 1.805-1.653 1.918a240 240 0 0 0-4.41 5.394L792 470h-2l-1 3a128 128 0 0 1-5 5q-1.755 1.734-3.505 3.473l-1.94 1.921a6263 6263 0 0 0-8.604 8.545 2755 2755 0 0 1-4.554 4.513 2651 2651 0 0 0-6.573 6.528l-2.073 2.043-1.893 1.892-1.677 1.663c-1.394 1.37-1.394 1.37-1.181 3.422-1.234 1.212-1.234 1.212-3.082 2.71-6.926 5.891-13.203 12.47-19.606 18.915l-3.955 3.969q-4.434 4.448-8.86 8.904c-1.35 1.355-2.71 2.7-4.07 4.046a221 221 0 0 0-6.38 6.764c-7.359 8.1-15.08 15.81-22.86 23.505-10.017 9.829-10.017 9.829-19.44 20.217-4.471 5.041-9.407 9.677-14.204 14.407-5.1 5.034-10.086 10.095-14.746 15.543-4.544 5.108-9.546 9.803-14.414 14.598-5.635 5.583-11.087 11.234-15.997 17.473-12.48 15.72-27.884 21.832-46.08 28.754-7.022 2.671-13.97 5.5-20.908 8.383q-4.785 1.978-9.574 3.954-3.115 1.287-6.227 2.579c-2.92 1.207-5.845 2.4-8.773 3.588l-2.609 1.09c-5.616 2.257-12.243 4.892-18.274 2.932-4.807-2.277-6.687-5.65-8.941-10.331l-1-2c.566-2.299.566-2.299 1.563-5.246l1.143-3.413 1.294-3.779q.668-1.971 1.333-3.944c5.566-16.43 11.282-32.811 17.056-49.169a667 667 0 0 0 4.229-12.312l.786-2.333q.72-2.14 1.409-4.291c2.262-6.66 6.186-10.702 11.187-15.513l1-2h2l.815-1.802c1.189-2.205 2.37-3.62 4.147-5.37l1.811-1.802 1.957-1.917 2.027-2.01q3.21-3.18 6.43-6.349 3.193-3.15 6.378-6.306a1243 1243 0 0 1 3.967-3.914c3.803-3.762 7.373-7.657 10.868-11.706 2.049-2.336 4.217-4.521 6.44-6.691l2.53-2.492a3770 3770 0 0 1 5.218-5.102l2.502-2.469 2.277-2.226c1.854-1.683 1.854-1.683 1.633-3.844l3-1a510 510 0 0 0 3.504-5.055c2.087-2.713 4.576-4.737 7.187-6.933 2.73-2.38 5.31-4.891 7.871-7.45l2.63-2.62c2.091-2.144 4.054-4.371 6.003-6.645 4.447-5.128 9.286-9.848 14.117-14.61q2.685-2.645 5.364-5.3l2.372-2.337c2.105-2.093 2.105-2.093 3.952-5.05h2l.623-1.613c1.944-3.37 4.647-5.881 7.408-8.578l1.793-1.778q2.833-2.803 5.676-5.594 2.841-2.798 5.676-5.604a1027 1027 0 0 1 3.532-3.48c2.386-2.356 4.425-4.552 6.292-7.353h2l.62-1.61c1.956-3.388 4.678-5.913 7.454-8.624l1.825-1.809q2.889-2.86 5.788-5.707c10.162-9.911 10.162-9.911 19.709-20.403 3.28-3.777 6.83-7.299 10.354-10.847l2.285-2.348 2.2-2.214c.651-.662 1.303-1.323 1.975-2.004C729 388 729 388 732 388M528 623l-.887 2.714c-2.25 6.824-4.564 13.612-7.043 20.356l-1.468 4.024a922 922 0 0 1-2.252 6.108 706 706 0 0 0-2.217 6.056l-1.316 3.567c-.85 3.303-.925 4.981.183 8.175 1.745 2.08 3.422 3.893 5.375 5.75l1.5 1.496c2.353 2.297 3.966 3.701 7.125 4.754 2.633-.76 2.633-.76 5.531-2.027l3.372-1.392 3.597-1.519 3.654-1.516c3.62-1.506 7.233-3.024 10.846-4.546l6.012-2.516q6.5-2.725 12.988-5.484l-2-2-1.629-2.125c-3.196-3.876-6.737-7.346-10.308-10.875l-2.131-2.117a2983 2983 0 0 0-4.103-4.068 719 719 0 0 1-4.528-4.542c-2.327-2.299-4.726-4.48-7.176-6.648a199 199 0 0 1-10.848-10.41c-1.104-1.33-1.104-1.33-2.277-1.215m-18.375-450c13.3 9.956 20.925 22.598 24.453 38.773l.528 2.412L535 216a3737 3737 0 0 1 17.822-.11q3.027-.015 6.052-.04c2.914-.025 5.829-.037 8.743-.045l2.694-.032c10.734-.001 19.571 1.6 27.634 9.016 7.045 7.398 8.522 15.384 8.453 25.363l.01 2.85a800 800 0 0 1-.017 5.926c-.016 2.998 0 5.994.02 8.992q-.004 2.898-.013 5.795l.019 2.674c-.105 9.415-2.204 18.32-8.983 25.2-5.743 5.256-11.994 7.369-19.434 9.411l-2 1v-2l-3.111.006q-37.497.066-74.992.098-18.134.014-36.266.047-15.807.03-31.614.037-8.368.003-16.735.023a4986 4986 0 0 1-15.764.015q-2.888 0-5.773.012c-26.116.1-26.116.1-35.745-8.238-7.4-7.82-9.467-15.995-9.434-26.492l-.015-2.988a865 865 0 0 1 .003-6.228c.008-3.151-.02-6.3-.052-9.452q-.003-3.041.002-6.082l-.034-2.817c.098-9.376 2.993-17.31 9.475-24.183 8.644-7.395 18.257-7.918 29.145-7.856l2.862.005c2.995.005 5.99.018 8.986.03l6.119.014q7.47.017 14.943.049l1.001-3.731 1.335-4.902.656-2.452c4.159-15.193 13.622-27.52 27.235-35.517 19.457-9.81 43.5-9.447 61.398 3.602m-48.5 29.313c-6.477 8.19-9.06 15.208-8.125 25.687l1 2q9.344.112 18.689.165 3.18.022 6.361.061c3.044.037 6.086.054 9.13.067.952.015 1.904.03 2.885.047h2.669l2.355.02L498 230c2.847-4.27 2.383-7.992 2-13-.983-4.083-2.308-6.81-5-10l-2.312-3.062c-4.643-5.075-9.332-6.516-16.028-7-5.936.139-10.906 1.651-15.535 5.375"/><path fill="#3b4652" d="m436.526 380.599 2.523-.02c2.777-.02 5.553-.017 8.33-.015l5.988-.03c5.413-.027 10.827-.034 16.24-.036q5.076-.003 10.152-.016 17.716-.041 35.433-.038c11.001.002 22.002-.03 33.003-.077 9.454-.04 18.907-.055 28.36-.054 5.643.001 11.285-.007 16.927-.04q7.962-.04 15.922-.007 2.917.006 5.833-.022c17.716-.154 17.716-.154 24.234 5.103 4.007 4.333 5.719 8.585 6.091 14.466-.253 5.845-2.196 11.4-5.562 16.187-2.55 1.25-2.55 1.25-5 2l-2 1c-2.695.104-5.364.148-8.059.147l-2.554.011q-4.26.015-8.52.019l-6.09.02q-8.292.025-16.582.036l-10.353.018q-16.188.029-32.376.041-18.702.015-37.404.077-14.445.044-28.889.048c-5.755.002-11.51.011-17.264.036q-8.121.035-16.242.018-2.981 0-5.962.02c-2.713.017-5.425.01-8.138-.003l-2.384.033c-5.222-.061-8.152-1.238-12.183-4.521-4.82-5.222-6.429-9.712-6.254-16.727.625-5.595 3.323-10.342 7.254-14.273 5.348-2.78 9.554-3.437 15.526-3.401"/><path fill="#3a4450" d="m633.192 237.861 2.218.006 2.302-.003q2.433 0 4.865.006 3.635.005 7.269-.007c23.347-.01 45.359.5 63.045 17.86 17.438 18.827 18.265 41.756 19.171 66.277l.08 2.079c.55 16.372.146 30.637-11.395 43.418C713.843 374.48 706.146 380.538 698 386c-2-2-2-2-2.22-5.47q.006-2.285.04-4.569l.014-2.519q.017-2.715.046-5.43c.03-2.872.047-5.744.06-8.616.04-8.169.105-16.337.176-24.506q.063-7.493.09-14.984.017-2.847.05-5.692c.393-16.44.393-16.44-5.319-31.589-6.474-5.786-13.94-8.78-22.62-8.723l-2.719.01-2.895.025-2.998.012q-4.728.019-9.455.051-6.242.04-12.484.062l-2.92.026-2.681.01-2.37.016C628 274 628 274 627 273c-.1-2.51-.14-4.99-.133-7.5l-.003-2.275q0-2.385.006-4.772.005-3.664-.007-7.328 0-2.312.004-4.625l-.006-2.229c.028-6.075.248-6.381 6.33-6.41"/><path fill="#3b4551" d="m785.688 342.75 3.011-.078c7.861.781 12.545 3.861 17.801 9.578q1.698 1.774 3.402 3.543l1.625 1.7c1.76 1.8 3.61 3.45 5.535 5.07 4.095 3.47 7.821 7.275 11.573 11.105 2.623 2.66 5.25 5.097 8.24 7.332 5.392 4.53 8.576 11.317 9.602 18.2.288 10.445-3.743 17.172-10.477 24.8-3.74 3.93-7.596 7.745-11.497 11.514-1.43 1.414-2.793 2.894-4.151 4.377C818 442 818 442 814 442c-1.965-1.355-1.965-1.355-3.937-3.187l-1.965-1.793c-3.034-2.922-5.998-5.91-8.963-8.902a7342 7342 0 0 0-6.322-6.368l-2.194-2.219-2.1-2.11-1.903-1.918c-1.56-1.592-1.56-1.592-3.616-2.503v-2l-1.747-.757c-2.568-1.417-4.253-3.032-6.3-5.13l-2.312-2.345-2.391-2.455c-5.01-5.123-10.039-10.11-15.478-14.779-2.345-2.03-4.57-4.163-6.772-6.346l-2.312-2.27C744 375 744 375 744 373c1.504-1.48 1.504-1.48 3.563-3.187 4.985-4.245 9.693-8.597 13.75-13.75L763 354h2l.691-1.8c1.668-2.804 3.429-3.778 6.246-5.387l2.653-1.543c3.822-2.014 6.828-2.454 11.097-2.52"/><path fill="#39424e" d="m431.332 502.846 3.429-.026 3.78-.013 3.966-.025c4.348-.026 8.696-.041 13.044-.055l4.489-.017q9.335-.033 18.67-.051 13.384-.023 26.766-.107 9.408-.056 18.815-.063c3.747-.004 7.493-.016 11.24-.048 4.18-.036 8.36-.032 12.54-.024l3.762-.05c9.334.068 9.334.068 12.422 3.03 1.698 2.532 2.513 4.034 2.808 7.04l.285 2.184c-1.002 6.853-7.676 12.008-12.348 16.629l-2.156 2.18-2.094 2.086-1.89 1.883c-3.552 3.058-6.196 3.86-10.86 3.601v2l-3 1v-3h-2v2l-3.75-.562c-3.013-.385-5.35-.525-8.25.562v-2l-1.75 1.063c-2.721 1.133-3.473.673-6.25-.063-4.778-.29-9.335-.131-14 1h-2v-2l-3.125.938c-8.681 2.46-8.681 2.46-12.875 1.062v-2l-9 1v1l-3.312-.062c-3.632-.123-3.632-.123-6.688 1.062l-1.75-.937c-3.19-1.507-5.765-1.312-9.25-1.063l-2.125 1.125c-1.875.875-1.875.875-4.312 0L442 542c-2.709-.168-2.709-.168-5 0v1c-3.716.2-4.772.152-8-2l-2.812-.812c-5.17-1.926-8.27-4.628-11.063-9.375-1.816-6.154-1.81-11.393-.062-17.563 3.87-6.494 8.679-10.361 16.269-10.404"/><path fill="#3b4551" d="M371.348 369.54 373 371v2l1.809.75c5.252 2.996 8.154 9.454 10.066 15 2.71 10.39 1.876 21.061-3.094 30.586-5.893 9.593-13.943 15.88-24.629 19.246-11.205 2.176-21.915.414-31.402-5.77-6.808-5.079-11.745-11.84-14.75-19.812v-3l-2-1c-.461-13.471 1.342-23.807 10.25-34.187 14.129-14.93 34.908-16.543 52.098-5.274m-2.535 242.586c7.95 5.442 14.409 13.75 16.773 23.223 1.82 11.655.405 21.666-6.274 31.402-6.78 8.721-14.573 13.437-25.312 16.25-8.796 1.098-16.198.225-24-4-.77-.4-1.54-.802-2.332-1.215-8.053-4.733-14.408-12.814-17.207-21.773-2.783-12.146-.999-23.376 5.539-34.012 12.074-17.44 35.244-20.262 52.813-9.875"/><path fill="#3a4551" d="M367 488v2l2.71.664c6.679 2.712 10.689 10.052 13.755 16.34 3.813 10.19 3.993 20.356-.211 30.433-4.874 9.96-11.228 16.815-21.692 20.938-11.164 3.602-21.555 3.36-32.187-1.875-5.978-3.468-10.019-8.227-14.375-13.5l-1.68-1.555c-2.602-2.848-2.736-6.747-3.32-10.445-.148-.936-.296-1.872-.45-2.836-1.357-11.129 1-20.386 7.384-29.621C330.07 482.377 348.62 481.403 367 488"/><path fill="#2d343f" d="M258 287c1.147 3.44.702 4.515 0 8a230 230 0 0 0-.131 8.302l-.007 2.536q-.006 4.225-.002 8.45l-.01 6.105q-.011 8.402-.01 16.805-.005 9.057-.016 18.113-.02 20.842-.025 41.686-.003 10.3-.01 20.6a176615 176615 0 0 0-.03 88.29v2.23c-.003 23.857-.02 47.713-.042 71.57a81561 81561 0 0 0-.04 83.981v2.066q-.005 16.457-.027 32.912-.022 16.542-.01 33.084.008 8.961-.011 17.922-.019 8.205 0 16.408.004 2.967-.01 5.934c-.314 18.149-.314 18.149 8.545 33.381 5.207 4.609 10.685 5.756 17.415 5.732l3.517-.005 3.925-.02 4.254-.008q4.745-.008 9.49-.024c9.345-.029 18.69-.034 28.034-.042l3.2-.003c33.181-.03 66.363.08 99.544.179l2.515.007a230229 230229 0 0 1 59.074.181l2.616.009q21.29.066 42.579.124 22.12.06 44.24.132 12.32.04 24.64.072 10.392.026 20.786.064 5.286.02 10.57.03 5.728.014 11.455.039l3.354.003c5.635.03 11.053.315 16.628 1.155-2.783 2.783-4.44 2.253-8.34 2.257l-2.004.01c-2.237.01-4.474.005-6.711 0l-4.835.014c-4.445.012-8.89.012-13.336.01-4.789 0-9.577.01-14.365.02-9.39.017-18.778.022-28.168.023q-11.448.001-22.897.012-32.445.026-64.89.025h-7.077c-18.927-.001-37.854.018-56.781.046q-29.137.043-58.276.04c-10.909 0-21.818.006-32.727.027q-13.938.029-27.876.009c-4.74-.006-9.48-.007-14.22.01q-6.515.024-13.029-.004-2.352-.005-4.704.012c-11.494.076-20.831-1.388-30.01-8.75-6.667-6.696-8.955-15.893-9.022-25.096l.014-2.326-.01-2.543c-.008-2.807-.003-5.614.003-8.42l-.011-6.105c-.01-5.587-.008-11.174-.004-16.762.002-6.027-.007-12.055-.014-18.082a27690 27690 0 0 1-.012-35.418 45045 45045 0 0 0-.01-39.15q-.013-28.97-.008-57.94v-2.205l.005-17.734q.007-34.59-.021-69.184a81442 81442 0 0 1-.027-86.023v-2.06q.002-15.405-.015-30.81-.019-17.517-.002-35.033.011-8.94-.005-17.878-.014-8.181.007-16.362.004-2.96-.008-5.923c-.01-2.682-.002-5.363.011-8.046l-.022-2.326c.054-5.369 1.288-9.394 3.397-14.335"/><path fill="#181d23" d="M269 241c-2.84 1.893-5.193 2.84-8.375 4-11.999 4.968-20.859 12.93-27.625 24-.418.677-.835 1.354-1.266 2.05-6.656 11.997-6.165 25.273-6.122 38.547q-.006 3.137-.016 6.274c-.014 5.727-.01 11.453-.003 17.18.005 6.184-.008 12.368-.018 18.552a18475 18475 0 0 0-.014 34.224 32194 32194 0 0 1-.007 42.27c-.01 19.825-.016 39.651-.008 59.477l.001 2.263.008 18.194q.014 35.479-.022 70.958a63920 63920 0 0 0-.03 88.294l.001 2.117q.002 15.795-.019 31.592-.023 17.97.002 35.941c.009 6.11.011 12.22-.004 18.33q-.02 8.398.01 16.795.005 3.03-.01 6.06c-.072 14.987 1.205 27.916 9.517 40.882l1.813 3.125C245.856 834.01 259.62 840.968 274 844c5.805.78 11.645.658 17.49.601q2.557.003 5.114.013c4.639.011 9.277-.008 13.916-.034 5.02-.021 10.039-.014 15.058-.01q13.023.002 26.044-.041c12.551-.041 25.103-.054 37.654-.06q30.551-.018 61.102-.092a47471 47471 0 0 1 63.028-.106l18.37-.02c50.741-.051 101.483-.14 152.224-.251-2.77 2.77-5.18 2.531-9 3l-3 1c-2.162.092-4.327.12-6.49.119-.666 0-1.331 0-2.017.002q-3.368-.002-6.735-.012l-4.86-.001c-4.463-.001-8.927-.01-13.391-.018-4.81-.008-9.62-.01-14.43-.014-11.628-.01-23.254-.03-34.88-.05l-16.432-.028a101722 101722 0 0 1-68.82-.13l-3.56-.008c-19.017-.04-38.033-.063-57.049-.08q-29.295-.024-58.59-.094c-10.963-.026-21.925-.045-32.888-.047q-14.012-.003-28.024-.052c-4.762-.016-9.523-.027-14.285-.02q-6.555.01-13.11-.032a522 522 0 0 0-4.71.002c-19.15.087-36.156-3.625-50.448-17.193C234.806 823.692 226 813.722 226 804l-2-1c-1.352-5.786-1.145-12.022-1.134-17.937l-.007-2.596q-.009-4.29-.006-8.582l-.011-6.228q-.014-8.545-.017-17.091-.007-9.221-.022-18.443-.027-21.208-.037-42.415l-.015-20.974a164683 164683 0 0 1-.042-76.343v-2.257l-.004-11.321v-2.27q-.014-36.42-.065-72.84a63792 63792 0 0 1-.059-87.636c-.002-11.163-.018-22.326-.038-33.489q-.03-16.84-.017-33.68c.005-6.078.003-12.156-.016-18.234q-.026-8.355-.001-16.71.004-3.014-.014-6.027c-.09-16.17 1.543-29.966 10.505-43.927l1.367-2.172C241.6 251.288 255.808 240.643 269 241"/><path fill="#3a4450" d="m437 624 2.75.5c5.367.773 10.842.79 16.25.5l1-1c6.058-.343 8.807.433 13.625 3.875 2.348 2.101 3.287 3.23 4.375 6.125-.244 8.464-3.16 21.033-9.09 27.158-3.69 2.335-6.76 2.42-10.992 2.373l-2.342.012q-2.447.004-4.895-.022c-2.476-.02-4.949 0-7.425.026q-2.388-.004-4.776-.016l-2.213.025c-5.656-.102-9.353-1.77-14.267-4.556v-2h-2c-2.98-6.706-4.538-13.021-2.309-20.238 2.001-4.446 4.642-8.876 9.309-10.762 4.367-.4 8.629-.292 13 0z"/><path fill="#1f262f" d="M258 287c1.147 3.44.702 4.515 0 8a230 230 0 0 0-.131 8.302l-.007 2.536q-.006 4.225-.002 8.45l-.01 6.105q-.011 8.402-.01 16.805-.005 9.057-.016 18.113-.02 20.842-.025 41.686-.003 10.3-.01 20.6a176615 176615 0 0 0-.03 88.29v2.23c-.003 23.857-.02 47.713-.042 71.57a81561 81561 0 0 0-.04 83.981v2.066q-.005 16.457-.027 32.912-.022 16.542-.01 33.084.008 8.961-.011 17.922-.019 8.205 0 16.408.004 2.967-.01 5.934c-.311 18.149-.311 18.149 8.545 33.385 2.415 2.132 4.853 3.428 7.836 4.621l4 2c-2.403.857-3.652 1.112-6.113.32-7.638-4.151-12.785-9.372-15.457-17.75-2.293-8.707-1.844-17.62-1.811-26.555q-.005-3.056-.014-6.112c-.013-5.58-.006-11.161.003-16.742.007-6.025-.004-12.05-.012-18.076q-.018-16.671-.003-33.343a28399 28399 0 0 0 .006-30.8l-.001-2.065-.003-8.3c-.01-25.94 0-51.88.015-77.82q.021-34.563-.001-69.125a79417 79417 0 0 1-.01-85.976v-2.06q.005-15.392-.008-30.785-.013-17.5.01-35 .013-8.93.001-17.86-.013-8.172.012-16.344.005-2.958-.006-5.917c-.009-2.679 0-5.358.014-8.037l-.02-2.324c.055-5.365 1.29-9.39 3.398-14.329"/><path fill="#1c212a" d="m436.526 380.599 2.523-.02c2.777-.02 5.553-.017 8.33-.015l5.988-.03c5.413-.027 10.827-.034 16.24-.036q5.076-.003 10.152-.016 17.716-.041 35.433-.038c11.001.002 22.002-.03 33.003-.077 9.454-.04 18.907-.055 28.36-.054 5.643.001 11.285-.007 16.927-.04q7.962-.04 15.922-.007 2.917.006 5.833-.022c17.716-.154 17.716-.154 24.234 5.103 4.641 5.018 6.245 10.178 6.002 16.977-.873 4.943-3.13 9.276-5.473 13.676l-4-1 3.809-4.395c3.447-4.645 2.706-11.13 2.191-16.605-2.307-4.97-5.253-7.366-10-10-2.95-.379-5.52-.542-8.464-.508l-2.54-.019c-2.8-.016-5.6-.003-8.4.01q-3.016-.009-6.033-.022a2882 2882 0 0 0-16.37.002c-5.71.01-11.42 0-17.131-.006q-14.385-.01-28.77.022c-11.088.021-22.174.014-33.261-.008q-14.28-.026-28.559-.01c-5.685.006-11.37.007-17.056-.006q-8.018-.017-16.035.02-2.942.007-5.885-.006a697 697 0 0 0-8.032.023l-2.352-.027c-5.183.075-8.103 1.288-12.112 4.535-4.162 4.593-4.352 9.466-4.281 15.46.454 4.099 1.792 6.244 4.281 9.54 4.276 3.38 8.294 3.418 13.536 3.36l2.599.009c2.873.004 5.745-.012 8.618-.028h6.18c5.592.002 11.185-.016 16.777-.037 5.844-.019 11.689-.02 17.533-.024q16.601-.017 33.202-.064c12.6-.033 25.2-.05 37.799-.065 25.919-.031 51.837-.084 77.756-.151v2c-3.168 1.584-6.58 1.148-10.059 1.147l-2.554.011q-4.26.015-8.52.019l-6.09.02q-8.292.025-16.582.036l-10.353.018q-16.188.029-32.376.041-18.702.015-37.404.077-14.445.044-28.889.048c-5.755.002-11.51.011-17.264.036q-8.121.035-16.242.018-2.981 0-5.962.02c-2.713.017-5.425.01-8.138-.003l-2.384.033c-5.222-.061-8.152-1.238-12.183-4.521-4.82-5.222-6.429-9.712-6.254-16.727.625-5.595 3.323-10.342 7.254-14.273 5.348-2.78 9.554-3.437 15.526-3.401"/><path fill="#23282f" d="M684 844c-2.77 2.77-5.18 2.531-9 3l-3 1c-2.175.09-4.353.117-6.53.113h-2.028c-2.26 0-4.519-.01-6.778-.017l-4.89-.006q-6.736-.009-13.473-.03-7.258-.016-14.515-.026-14.226-.025-28.451-.06-11.557-.03-23.115-.053-32.737-.07-65.476-.154l-3.568-.009-3.572-.01q-28.674-.071-57.348-.121-29.415-.054-58.828-.13a33063 33063 0 0 0-33.05-.07q-14.066-.021-28.133-.067-7.182-.024-14.364-.03-6.568-.006-13.135-.036-2.383-.009-4.766-.007c-2.15.002-4.3-.009-6.45-.022l-3.628-.009C277 847 277 847 274 845l172.278-.427 3.656-.01 224.73-.557q4.668-.008 9.336-.006"/><path fill="#2a3139" d="M728 568h2a100346 100346 0 0 1 .111 97.064q.015 16.168.043 32.335.028 16.605.034 33.209.003 9.32.023 18.64.02 8.78.015 17.56 0 3.216.012 6.43c.076 22.015-2.024 39.715-17.777 56.461-7.619 7.345-16.559 13.805-27.461 14.301 2.736-1.824 5.473-3.178 8.446-4.562 14.643-6.922 24.617-16.788 30.709-32.048 3.958-11.194 3.115-23.234 3.072-34.926v-6.537c.002-5.89-.01-11.779-.024-17.669-.013-6.164-.014-12.329-.016-18.493a29383 29383 0 0 0-.043-34.987c-.022-13.282-.033-26.563-.043-39.845Q727.068 613.967 727 573q-2.882 2.865-5.762 5.734l-1.637 1.627c-4.769 4.756-9.173 9.753-13.507 14.905l-1.907 2.234-1.707 2.031C701 601 701 601 699 601c1.5-3.117 3.062-6.131 5-9l3-1c1.476-1.456 1.476-1.456 2.938-3.312 3.752-4.445 7.816-8.502 11.974-12.562 2.324-2.286 4.272-4.402 6.088-7.126"/><path fill="#1e242c" d="m785.688 342.75 3.011-.078c7.861.781 12.545 3.861 17.801 9.578q1.698 1.774 3.402 3.543l1.625 1.7c1.76 1.8 3.61 3.45 5.535 5.07 4.095 3.47 7.821 7.275 11.573 11.105 2.623 2.66 5.25 5.097 8.24 7.332 5.392 4.53 8.576 11.317 9.602 18.2.312 11.303-4.746 18.45-12.07 26.566C833 427 833 427 831 427v-2h2l.813-1.785c1.532-2.86 3.554-4.97 5.75-7.336 4.683-6.122 4.214-13.536 3.437-20.879-2.477-7.765-8.643-13.28-14.688-18.442-6.735-5.774-12.873-12.095-19.066-18.439-7.152-7.244-12.235-12.173-22.808-12.557l-3.504-.183c-10.885 1.718-18.241 10.421-25.559 17.996a2345 2345 0 0 1-3.043 3.098Q750.651 370.22 747 374l2.214 2.212q3.687 3.691 7.36 7.397l5.114 5.141 2.626 2.652 2.51 2.52 2.284 2.3c1.776 1.84 1.776 1.84 3.892 2.778v2l1.747.757c2.568 1.417 4.253 3.032 6.3 5.13l2.312 2.345 2.391 2.455c5.025 5.139 10.07 10.133 15.526 14.814 2.095 1.822 4.044 3.755 5.974 5.749 3.584 3.731 3.584 3.731 7.75 6.75 3.622-.161 5.338-2.012 7.75-4.562l1.86-1.942L826 431c0 3.999-1.353 5.067-4 8a115 115 0 0 1-5 4c-2.837-1.31-5.088-2.756-7.437-4.812l-1.684-1.458c-2.364-2.177-4.617-4.446-6.879-6.73a7600 7600 0 0 0-8.187-8.25l-2.194-2.219-2.1-2.11-1.903-1.918c-1.56-1.592-1.56-1.592-3.616-2.503v-2l-1.747-.757c-2.568-1.417-4.253-3.032-6.3-5.13l-2.312-2.345-2.391-2.455c-5.01-5.123-10.039-10.11-15.478-14.779-2.345-2.03-4.57-4.163-6.772-6.346l-2.312-2.27C744 375 744 375 744 373c1.504-1.48 1.504-1.48 3.563-3.187 4.985-4.245 9.693-8.597 13.75-13.75L763 354h2l.691-1.8c1.668-2.804 3.429-3.778 6.246-5.387l2.653-1.543c3.822-2.014 6.828-2.454 11.097-2.52"/><path fill="#272e38" d="m633.192 237.861 2.218.006 2.302-.003q2.433 0 4.865.006 3.635.005 7.269-.007c23.347-.01 45.359.5 63.045 17.86 6.336 6.84 13.792 15.333 14.238 25.105L727 283c-2.316-2.316-2.63-3.767-3.563-6.875-4.931-13.885-15.72-23.69-28.722-30.02L692 245l-1.788-.746c-6.64-2.515-12.856-2.726-19.903-2.766l-3.594-.054c-3.76-.054-7.518-.088-11.278-.122q-3.84-.05-7.681-.103c-6.252-.087-12.504-.147-18.756-.209v30l8.95-.14q4.353-.046 8.707-.08 2.996-.03 5.99-.082c26.839-.457 26.839-.457 37.478 8.114 3.528 3.477 5.563 6.409 6.875 11.188l-1 3-.734-1.574C691.125 282.81 686.973 278.595 678 275a39.7 39.7 0 0 0-9.683-1.098l-2.719.01-2.895.025-2.998.012q-4.728.019-9.455.051-6.242.04-12.484.062l-2.92.026-2.681.01-2.37.016C628 274 628 274 627 273c-.1-2.51-.14-4.99-.133-7.5l-.003-2.275q0-2.385.006-4.772.005-3.664-.007-7.328 0-2.312.004-4.625l-.006-2.229c.028-6.075.248-6.381 6.33-6.41"/><path fill="#2c3139" d="M371 308h211l-4 4h-2v-2l-3.128.006q-37.642.066-75.286.098-18.204.014-36.408.047-15.862.03-31.726.037-8.402.003-16.805.023-7.904.02-15.808.015-2.904 0-5.81.012c-2.639.01-5.278.008-7.917.003l-2.335.017c-4.07-.023-6.028-.383-9.777-2.258"/><path fill="#222830" d="M728 391c-1.276 2.8-2.59 4.834-4.778 6.99l-1.69 1.68-1.825 1.783-1.892 1.876a2202 2202 0 0 1-6.003 5.921 3585 3585 0 0 0-5.949 5.878 1075 1075 0 0 1-3.7 3.647c-2.985 2.95-5.837 5.958-8.578 9.138-3.768 4.36-7.8 8.412-11.898 12.462l-2.34 2.33c-3.27 3.254-6.547 6.502-9.823 9.75a7601 7601 0 0 0-7.212 7.17l-2.21 2.185a221 221 0 0 0-11.563 12.426c-1.885 2.16-3.87 4.192-5.914 6.202l-2.297 2.273-4.656 4.578c-4.149 4.106-8.095 8.29-11.899 12.715-3.93 4.424-8.236 8.496-12.457 12.64a212 212 0 0 0-11.713 12.526c-2.243 2.56-4.617 4.94-7.04 7.33l-2.622 2.594L588 537l-2-1c3.45-5.03 7.06-9.107 11.727-13.023 2.72-2.366 5.286-4.868 7.836-7.414l2.628-2.622c2.092-2.143 4.055-4.37 6.004-6.644 4.447-5.128 9.286-9.848 14.117-14.61q2.685-2.645 5.364-5.3l2.372-2.337c2.105-2.093 2.105-2.093 3.952-5.05h2l.623-1.613c1.944-3.37 4.647-5.881 7.408-8.578l1.793-1.778q2.833-2.803 5.676-5.594 2.841-2.798 5.676-5.604a1027 1027 0 0 1 3.532-3.48c2.386-2.356 4.425-4.552 6.292-7.353h2l.62-1.61c1.956-3.388 4.678-5.913 7.454-8.624l1.825-1.809q2.889-2.86 5.788-5.707a3798 3798 0 0 0 9.41-9.303c3.62-3.608 7.081-7.294 10.388-11.194 2.791-3.23 5.812-6.234 8.827-9.253.62-.632 1.24-1.263 1.877-1.914l1.8-1.805 1.61-1.623C726 391 726 391 728 391"/><path fill="#21262e" d="m584 538 2 1-4.312 4.813-2.426 2.707c-3.906 4.283-3.906 4.283-5.262 5.48h-2l-.82 1.807c-1.167 2.169-2.306 3.556-4.05 5.274l-1.751 1.741c-.624.61-1.248 1.22-1.89 1.85l-1.96 1.943q-3.102 3.073-6.216 6.135a3858 3858 0 0 0-6.164 6.092 1157 1157 0 0 1-3.833 3.78 187 187 0 0 0-10.685 11.526c-3.334 3.785-7.017 7.239-10.645 10.739-5.945 5.834-9.436 11.559-12.048 19.426l-.737 2.146c-.975 2.854-1.927 5.716-2.877 8.579-2.875 8.66-5.86 17.282-8.85 25.903q-1.042 3.015-2.08 6.03-1.504 4.374-3.023 8.744l-.934 2.733-.88 2.52-.767 2.22C491 683 491 683 489 685c.61-6.549 2.68-12.386 4.86-18.566l1.17-3.367c1.234-3.546 2.477-7.087 3.72-10.63l2.46-7.064a3822 3822 0 0 1 4.725-13.478 598 598 0 0 0 3.591-10.466c2.026-6.009 3.645-10.723 8.224-15.179l2.36-2.36L522 602l1-2h2l.815-1.802c1.189-2.205 2.37-3.62 4.147-5.37l1.811-1.802 1.957-1.917 2.027-2.01q3.21-3.18 6.43-6.349 3.193-3.15 6.378-6.306a1243 1243 0 0 1 3.967-3.914c3.802-3.761 7.374-7.653 10.868-11.702 2.057-2.35 4.224-4.565 6.44-6.765l2.53-2.52 2.567-2.543c.875-.87 1.75-1.74 2.65-2.637Q580.79 541.178 584 538"/><path fill="#232932" d="M298 238q3.368.082 6.738.027l3.733-.037q3.87-.053 7.742-.117l3.713-.033 3.388-.051C326 238 326 238 328 240c.104 2.515.09 4.907-.023 7.414l-.076 2.211c-.083 2.334-.18 4.667-.276 7q-.087 2.37-.172 4.742-.212 5.817-.453 11.633c-2.46 1.23-3.978 1.085-6.725 1.022l-2.972-.061-3.217-.082-3.287-.072q-5.213-.116-10.424-.245l-7.055-.158q-8.66-.194-17.32-.404v-1h49v-31h-55c2.904-2.904 6.037-2.422 9.938-2.562 16.437-.684 16.437-.684 18.062-.438"/><path fill="#22272f" d="m627 239 3 1-1 31 8.95-.14q4.353-.046 8.707-.08 2.996-.03 5.99-.082c26.839-.457 26.839-.457 37.478 8.115 3.528 3.476 5.563 6.408 6.875 11.187l-1 3-.734-1.574C691.125 282.81 686.973 278.595 678 275a39.7 39.7 0 0 0-9.683-1.098l-2.719.01-2.895.026-2.998.011q-4.727.019-9.455.051-6.242.039-12.484.063l-2.92.025-2.681.01-2.37.016C628 274 628 274 627 273c-.088-2.52-.115-5.014-.098-7.535l.005-2.283c.005-2.415.018-4.83.03-7.245q.009-2.45.014-4.9.017-6.019.049-12.037"/><path fill="#242a32" d="M729 388h3v2l1.656.666c3.096 1.762 5.382 4.144 7.844 6.674l1.568 1.584c1.65 1.666 3.291 3.34 4.932 5.014q2.462 2.505 4.932 5.002a782 782 0 0 1 3.058 3.112c2.03 2.06 4.018 3.954 6.354 5.665L764 419v2l1.763.773c2.463 1.351 4.065 2.842 6.022 4.852l2.108 2.14 2.17 2.235q2.139 2.19 4.285 4.375l1.906 1.96c1.847 1.857 1.847 1.857 4.746 3.665v2l1.61.617c3.419 1.978 5.903 4.686 8.64 7.508l1.68 1.707q2.04 2.079 4.07 4.168l-1.137 1.32-1.55 1.805-1.66 1.922a114 114 0 0 0-3.024 3.719c-2.403 3.084-3.788 4.537-7.629 5.234l12-14-1.73-1.512c-5.697-5.044-11.135-10.264-16.45-15.706-2.735-2.78-5.522-5.417-8.488-7.95-5.633-4.868-10.794-10.224-16.02-15.52a3213 3213 0 0 0-6.074-6.136l-2.686-2.722c-2.414-2.322-4.92-4.385-7.552-6.454l-5-5a330 330 0 0 0-5.645-4.668L729 390z"/><path fill="#22272f" d="M311 390h1l-.105 2.64c-.309 13.574 1.631 24.1 10.886 34.329 7.802 7.546 16.732 9.642 27.367 9.504 5.96-.263 10.7-1.512 15.852-4.473l2.137-1.215c7.38-4.85 11.829-12.64 14.863-20.785h1c-.37 8.673-5.15 14.507-11.312 20.313-9.6 8.14-19.426 9.392-31.688 8.687-9.364-1.43-17.541-6.492-23.375-13.937C311 415.388 311 415.388 311 410l-2-1c-.1-6.093-.173-12.003 1-18z"/><path fill="#4b5460" d="M429 540h114v1h-5v2l-3 1v-3h-2v2l-3.75-.562c-3.013-.385-5.35-.525-8.25.562v-2l-1.75 1.063c-2.721 1.133-3.473.673-6.25-.063-4.778-.29-9.335-.131-14 1h-2v-2l-3.125.938c-8.681 2.46-8.681 2.46-12.875 1.062v-2l-9 1v1l-3.312-.062c-3.632-.123-3.632-.123-6.688 1.062l-1.75-.937c-3.19-1.507-5.765-1.312-9.25-1.063l-2.125 1.125c-1.875.875-1.875.875-4.312 0L442 542c-2.709-.168-2.709-.168-5 0v1c-2.312.188-2.312.188-5 0z"/><path fill="#22262f" d="M528 621c5.304 2.67 9.069 6.817 13.188 10.992l2.364 2.373q3.73 3.75 7.448 7.51l5.008 5.035q4.605 4.629 9.199 9.265Q569.591 660.6 574 665l-4 1-1.008-2c-2.786-4.195-6.274-7.491-9.867-11l-2.145-2.117a1725 1725 0 0 0-4.135-4.068 511 511 0 0 1-4.548-4.542c-3.091-3.06-6.344-5.916-9.602-8.796-3.332-3.062-6.516-6.257-9.695-9.477l-1.006 2.883q-1.891 5.411-3.791 10.82-.814 2.319-1.623 4.639c-3.606 10.33-7.424 20.536-11.58 30.658-1.173-3.52-.785-4.328.431-7.731l1.022-2.902 1.133-3.125 1.14-3.208q1.197-3.36 2.407-6.713c1.238-3.436 2.464-6.876 3.687-10.317l2.328-6.512 1.121-3.137 1.041-2.883.918-2.55C527 622 527 622 528 621"/><path fill="#222830" d="M373 371v2l1.809.75c5.252 2.996 8.154 9.454 10.066 15 1.623 6.016 1.387 12.07 1.125 18.25l-2 1-.078-2.895c-.547-12.476-2.501-21.621-11.477-30.937-7.672-6.802-14.765-8.357-24.695-8.418l-2.488-.062c-7.957-.05-13.973 1.782-20.137 6.937-4.029 3.327-4.029 3.327-6.125 4.375 2.457-5.454 6.253-8.721 11.66-11.238 14.108-5.337 30.383-5.334 42.34 5.238"/><path fill="#20252c" d="m475.938 162.813 2.38-.038c4.631-.011 8.324.455 12.682 2.225v1l-2.089-.063c-19.242-.508-35.187.137-50.407 13.45C428.416 190.208 423.54 201.68 421 216h-1c-.71-12.791 4.564-24.047 12.791-33.69 11.53-12.88 25.908-19.483 43.147-19.498"/><path fill="#1f242b" d="M339 486c-2.58 1.72-4.946 2.912-7.75 4.188-8.248 4.117-13.771 10.251-17.25 18.812-3.25 12.017-2.361 22.246 3.625 33.188 4.67 7.369 11.264 11.878 19.375 14.812-2.579.982-3.686 1.123-6.297.102-6.448-3.882-10.938-8.325-15.703-14.102l-1.652-1.523c-2.62-2.87-2.76-6.75-3.348-10.477-.148-.936-.296-1.872-.45-2.836-1.36-11.144 1.028-20.335 7.352-29.613C322.53 491.708 329.736 485.47 339 486"/><path fill="#21262e" d="m371 218-1.691.832c-9.321 4.716-15.81 8.862-19.309 19.168-.285 2.603-.285 2.603-.227 5.341v3.154l.032 3.368.008 3.476c.011 3.658.037 7.316.062 10.974q.016 3.723.027 7.447.034 9.12.098 18.24c-2-1-2-1-3-4a74 74 0 0 1-.177-4.405l-.039-2.692-.022-2.907-.025-3.01q-.02-3.157-.032-6.316c-.017-3.196-.061-6.39-.105-9.586q-.015-3.075-.026-6.15l-.053-2.865c.031-9.598 3.009-17.395 9.62-24.374 4.515-4.116 8.558-6.31 14.859-5.695"/><path fill="#1e232a" d="M269 241c-2.84 1.893-5.193 2.84-8.375 4-11.999 4.968-20.859 12.93-27.625 24-.418.677-.835 1.354-1.266 2.05-4.703 8.477-6.121 18.4-6.734 27.95l-2-1c-.988-12.098 3.555-23.96 10-34l1.367-2.172C241.6 251.288 255.808 240.643 269 241"/><path fill="#20252c" d="M224 796h2l.7 2.746c1.962 7.333 4.178 13.824 8.3 20.254l1.813 3.125C246.19 834.449 259.541 840.063 274 844v2c-16.123-1.612-28.577-10.056-38.75-22.312-4.061-5.47-9.25-12.717-9.25-19.688l-2-1z"/><path fill="#1e232b" d="M312 656c2.068 2.686 3.902 5.433 5.688 8.313C322.95 672.175 329.614 677.91 339 680c10.834 1.078 21.013.399 30.063-6.25L371 672h2v2c-10.194 7.64-20.357 10.282-33 9-3.627-.894-6.721-2.224-10-4-.77-.4-1.54-.802-2.332-1.215-6.487-3.812-11.05-9.213-14.668-15.785-.719-3.344-.719-3.344-1-6"/><path fill="#272d35" d="M415 638h1l.297 3.105q.225 2.042.453 4.082l.188 2.042c.553 4.724 1.672 7.435 5.062 10.771 3.853 2.681 8.188 2.35 12.703 2.414l2.539.059c2.67.06 5.338.106 8.008.152q2.719.057 5.438.117 6.655.142 13.312.258l-1 2q-7.47.149-14.941.22-2.537.03-5.075.082c-2.443.049-4.884.071-7.328.089l-2.26.062c-5.751.003-9.409-1.605-14.396-4.453v-2h-2c-2.721-6.123-3.68-11.29-3-18z"/><path fill="#1f252d" d="m346.5 605.813 2.281-.043c2.468.256 4.083 1.002 6.219 2.23l-3.734.191c-12.175.822-21.96 2.85-30.704 12.121-6.552 8.608-8.76 16.857-8.625 27.563l.014 2.086q.02 2.52.049 5.039l-2-1c-2.627-10.106-.28-20.856 4.66-29.82 5.958-9.693 14.577-14.651 25.29-17.742 2.228-.476 4.272-.606 6.55-.625"/><path fill="#1e232b" d="M492 166c2.335.32 4.668.656 7 1l2.625.25c3.381 1.068 4.934 3.195 7.375 5.75q1.917 1.433 3.875 2.813c10.012 7.414 17.59 18.899 20.125 31.187.21 3.052.146 5.935 0 9-1.754-3.15-2.557-6.11-3.312-9.625-2.094-8.593-5.424-15.58-11.551-22C517 183 517 183 517 181l-1.785-.828c-2.146-1.136-3.789-2.378-5.653-3.922-5.331-4.107-11.412-6.606-17.562-9.25zm235 628 2 1c-.755 15.098-8.58 27.026-19.25 37.313-7.065 6.162-15.184 11.252-24.75 11.687 2.736-1.824 5.473-3.178 8.446-4.562 14.823-7.007 24.337-16.863 30.777-32.09 1.439-4.346 2.134-8.825 2.777-13.348"/><path fill="#1d2229" d="M678 240c6.156-.336 10.371.477 15.938 3.063l2.113.957c5.619 2.636 10.368 5.771 14.949 9.98l1.813 1.504c4.032 3.591 6.828 7.81 9.562 12.434l1.05 1.736c2.542 4.511 3.186 8.259 3.575 13.326-2.316-2.316-2.63-3.767-3.562-6.875-4.572-12.872-14.338-22.455-26.188-28.875-6.144-2.895-12.695-4.56-19.25-6.25z"/><path fill="#1a202a" d="m461.566 228.867 3.388-.006 3.608.014 3.662.006c9.619.046 19.184.417 28.776 1.119l-1 2h-46l-1-2c3.118-1.04 5.297-1.13 8.566-1.133"/><path fill="#171b23" d="M632 272q9.365-.149 18.732-.22 3.18-.03 6.363-.082a906 906 0 0 1 9.182-.089l2.842-.062c9.385-.003 16.37 3.231 23.213 9.582 2.524 2.831 3.616 5.225 4.668 8.871l-1 3-.734-1.574C691.125 282.81 686.973 278.595 678 275c-4.771-1.255-9.556-1.222-14.457-1.316l-2.736-.063q-4.31-.097-8.62-.183l-5.857-.131A8151 8151 0 0 0 632 273z"/><path fill="#1e232b" d="M733 527c0 3 0 3-1.573 4.914l-2.189 2.14-2.392 2.364-2.534 2.457-2.474 2.434A2515 2515 0 0 1 715 548c-4.4 4.318-8.532 8.841-12.627 13.447-4.712 5.192-4.712 5.192-8.373 6.553 1.419-3.227 3.129-5.373 5.624-7.85.74-.741 1.48-1.482 2.244-2.244l2.421-2.39 2.48-2.472a4051 4051 0 0 1 7.856-7.794l5.32-5.293Q726.465 533.471 733 527"/><path fill="#181c23" d="M697 356h1l1 26 7-8a354 354 0 0 1 5.813-6l1.443-1.48c1.208-1.214 2.472-2.373 3.744-3.52h2c-1.514 3.568-3.605 5.837-6.352 8.547l-2.578 2.558-2.695 2.645-2.719 2.691Q701.335 382.727 698 386c-2-2-2-2-2.23-5.527q.004-2.205.043-4.41l.019-2.307c.08-5.95.453-11.846 1.168-17.756"/><path fill="#1b2028" d="m437 624 2.75.5c5.367.773 10.842.79 16.25.5l1-1c7.449-.422 10.398 1.332 16 6l-1 4-.875-1.937c-.953-2.215-.953-2.215-3.125-3.063a284 284 0 0 0-8.945-.535l-2.682-.13q-4.249-.204-8.498-.398-2.877-.136-5.754-.275-7.06-.337-14.121-.662v-1h9z"/><path fill="#20262e" d="M728 568h2c-.25 2.375-.25 2.375-1 5l-4 2c-6.88 6.2-12.959 13.2-18.914 20.273l-1.899 2.227-1.707 2.031C701 601 701 601 699 601c1.5-3.117 3.062-6.131 5-9l3-1c1.476-1.456 1.476-1.456 2.938-3.312 3.752-4.445 7.816-8.502 11.974-12.562 2.324-2.286 4.272-4.402 6.088-7.126"/><path fill="#1f252d" d="M356 608c8.03.178 14.69 4.54 20.156 10.254 4.255 5.328 8.472 10.627 7.844 17.746-2-3-2-3-3.191-5.418C375.178 619.209 367.713 613.554 356 609z"/><path fill="#222831" d="M356 486c7.429 1 7.429 1 11 2v2l2.703.637c4.083 1.688 5.494 3.606 8.047 7.176l2.297 3.144c4.197 6.539 4.197 6.539 3.578 10.356L383 513l-1.172-2.45-1.578-3.238-1.547-3.199C373.657 494.89 365.52 490.725 356 487z"/><path fill="#1a1f26" d="M689 572c0 3 0 3-1.74 5.065l-2.424 2.357-2.652 2.61-2.809 2.718a2811 2811 0 0 0-5.414 5.297l-2.599 2.549a103 103 0 0 0-5.885 6.545L663 602h-2c1.638-4.196 4.733-6.987 7.883-10.078l1.74-1.732q2.747-2.725 5.502-5.44l3.73-3.703A4078 4078 0 0 1 689 572"/><path fill="#21272f" d="M374 548v3c-8.211 7.454-19.25 10.397-30.152 9.902-1.91-.215-1.91-.215-4.848-.902l-1-2 2.64.105c13.397.305 22.82-1.594 33.36-10.105"/><path fill="#22262e" d="M578 217c6.674-.725 11.469 1.278 17 5 4.181 3.729 7.469 7.108 9 12.563V237c-1.49-1.956-2.94-3.909-4.29-5.965-5.423-8.009-12.414-11.176-21.71-13.035z"/><path fill="#232830" d="M416 514c1.286 2.573.96 4.26.813 7.125-.036 5.425.72 9.588 4.187 13.875 3.068 2.038 3.068 2.038 6 3v2c-4.24-.49-7.185-2.964-10-6-3.193-5.427-3.832-10.82-3-17z"/><path fill="#171c23" d="M766 493c0 3 0 3-1.285 4.594l-1.778 1.691-1.914 1.858-2.023 1.92a765 765 0 0 0-3.937 3.785l-1.778 1.687c-1.505 1.39-1.505 1.39-1.285 3.465-1.46 1.508-1.46 1.508-3.375 3.125l-1.898 1.633C745 518 745 518 743 518c1.563-3.766 3.906-6.136 6.79-8.984l1.403-1.396q2.21-2.19 4.432-4.37l3.008-2.98q3.676-3.642 7.367-7.27"/><path fill="#404b58" d="M598 526c0 3 0 3-1.174 4.499l-1.642 1.575-1.809 1.763-1.937 1.85a1805 1805 0 0 0-3.856 3.77l-1.876 1.838c-3.082 3.08-5.933 6.348-8.706 9.705 0-3.961 1.349-4.83 4-7.687l2.25-2.45L585 539l-1-3 2.2-.215c3.583-1.004 5.075-2.658 7.612-5.347l2.395-2.504z"/><path fill="#282e39" d="M728 391c-1.358 3.043-2.885 5.123-5.258 7.453l-1.894 1.875-1.973 1.922-1.996 1.969A1237 1237 0 0 1 712 409l-3-1q4.178-4.26 8.375-8.5l2.406-2.457 2.305-2.324 2.126-2.158C726 391 726 391 728 391"/><path fill="#22272f" d="M489 200c4.188 1.318 5.935 2.727 8.25 6.438l1.516 2.37c2.412 4.282 2.354 8.108 2.296 12.88l-.013 2.126q-.02 2.594-.049 5.186h-1l-2-16h-2v-4l-2-2a159 159 0 0 1-2.625-3.625l-1.352-1.914z"/><path fill="#21262e" d="M415 638h1l.297 3.105q.225 2.042.453 4.082l.188 2.042c.552 4.72 1.733 7.391 5.062 10.771 2.117 1.312 2.117 1.312 4 2v2c-4.75-1.875-4.75-1.875-7-3v-2h-2c-2.721-6.123-3.68-11.29-3-18z"/><path fill="#1b2129" d="m675 444 2 1-24 24c0-3 0-3 1.589-4.93l2.208-2.16 2.406-2.377 2.547-2.47 2.5-2.46a1396 1396 0 0 1 4.644-4.544A645 645 0 0 0 675 444"/><path fill="#1a1f26" d="M627 636c0 3 0 3-1.19 4.515l-1.662 1.594-1.832 1.79-1.941 1.851c-4.304 4.151-8.388 8.298-12.126 12.974L607 660h-2c1.54-3.668 3.755-5.986 6.57-8.766l2.715-2.695 2.84-2.789q1.433-1.417 2.863-2.836 3.5-3.465 7.012-6.914"/><path fill="#1f232a" d="M350 291c1.616 1.553 3.083 3.105 4.473 4.867 4.412 5.573 9.006 8.404 15.527 11.133v1c-6.49-.27-10.294-2.58-15-7-5-5.713-5-5.713-5-10"/><path fill="#1c2128" d="M653 609c0 3 0 3-1.13 4.455l-1.573 1.506-1.723 1.68-1.824 1.734q-1.761 1.695-3.516 3.398l-1.693 1.644c-1.744 1.737-1.744 1.737-3.838 4.497L636 630h-2c1.457-3.363 3.311-5.545 5.914-8.11l2.305-2.285 2.406-2.355 2.43-2.402q2.966-2.93 5.945-5.848"/><path fill="#282f37" d="m537 586 2 2a1722 1722 0 0 1-6.875 7l-1.973 2.023-1.894 1.914-1.746 1.778C525 602 525 602 523 602v-2h2l.68-1.672c1.724-3.04 3.945-5.142 6.445-7.578l2.758-2.703z"/><path fill="#262c35" d="M744 373h2l1.625 2.063c2.561 3.167 5.35 5.596 8.473 8.19 1.928 1.771 3.4 3.61 4.902 5.747-3 0-3 0-4.626-1.253l-1.73-1.74-1.884-1.886-1.947-1.996-1.983-1.973C744 375.267 744 375.267 744 373"/><path fill="#1c2229" d="m522 602 2 1-1.574 1.512C516.439 610.675 513.614 616.87 511 625c-1.548-4.44-.15-7.21 1.613-11.387 2.4-4.523 5.793-8.019 9.387-11.613"/><path fill="#20252d" d="M341 364c-3 2-3 2-6.625 3.188-4.507 1.61-7.828 4.263-11.492 7.289C321 376 321 376 319 377c2.48-5.6 7.062-9.296 12.563-11.875 3.39-1.11 5.901-1.384 9.437-1.125"/><path fill="#252b34" d="M457 624c7.492-.288 10.339 1.282 16 6l-1 4-.586-1.89c-1.312-2.417-1.312-2.417-4.453-3.157l-3.586-.703-3.602-.734L457 627z"/><path fill="#292f38" d="m626 494 2 2-13 13-2-2z"/><path fill="#262c34" d="M719 363c-1.587 3.903-4.134 6.335-7.125 9.25l-2.758 2.703L707 377l-2-2q2.928-3.008 5.875-6l1.684-1.734C716.773 363 716.773 363 719 363"/><path fill="#1c2129" d="M296 239v1l-26 1c2.904-2.904 6.037-2.422 9.938-2.562 13.607-.566 13.607-.566 16.062.562"/><path fill="#282e36" d="m688 805 3 1c-4.798 4.478-10.964 7.958-17.648 8.027-2.132-.238-4.246-.62-6.352-1.027v-1l2.816-.262c7.653-.87 12.255-1.863 18.184-6.738"/><path fill="#252a32" d="M280 273v1l-3.625.75c-4.077 1.003-6.96 2.787-10.375 5.25l-3 1c-1.219 2.504-1.219 2.504-2 5h-2c3.253-7.985 12.43-15.03 21-13"/><path fill="#262c34" d="M555 527h2c-1.462 3.37-3.338 5.607-5.937 8.188l-2.09 2.105C547 539 547 539 544 540c1.398-3.158 3.052-5.323 5.5-7.75l1.844-1.86C553 529 553 529 555 529z"/><path fill="#232931" d="m786 472 2 1a773 773 0 0 1-4.25 4.875l-2.39 2.742c-2.107 2.127-3.617 3.288-6.36 4.383 1.536-3.68 3.782-5.988 6.625-8.75l2.477-2.422z"/><path fill="#262c34" d="M706 556c-1.47 3.399-3.38 5.65-6 8.25l-2.125 2.14C696 568 696 568 694 568c1.47-3.399 3.38-5.65 6-8.25l2.125-2.14C704 556 704 556 706 556"/><path fill="#252b33" d="M511 176c3.504.579 5.168 1.785 7.625 4.313l1.79 1.8c1.578 1.878 2.59 3.654 3.585 5.887l-2 1c-5-5.75-5-5.75-5-8l-1.875-.812C513 179 513 179 511 176"/><path fill="#20252d" d="M512 674c3.367 1.454 5.523 3.31 8.063 5.938l2.035 2.09L524 684a792 792 0 0 0 3 3c-4.245-.495-6.76-3.14-9.75-5.937l-1.535-1.381c-1.283-1.181-2.504-2.428-3.715-3.682z"/><path fill="#1c2127" d="M826 431c0 3.999-1.353 5.067-4 8-2.562 2.375-2.562 2.375-5 4l-3-1v-2l2.063-.562c4.124-2.019 6.84-5.1 9.937-8.438"/><path fill="#1f242b" d="M383 410h1c-.372 5.946-2.147 10.378-6 15h-2c1.366-3.542 2.91-6.926 4.625-10.312l1.352-2.676z"/><path fill="#293139" d="m651 468 2 2-8 8-3-1z"/><path fill="#1f242d" d="m584 538 2 1a844 844 0 0 1-4.312 4.938l-2.426 2.777C577 549 577 549 574 550c1.477-3.452 3.438-5.65 6.125-8.25l2.195-2.14z"/><path fill="#1d232a" d="M376 498c4.496 3.038 6.34 5.836 8 11-.43 2.219-.43 2.219-1 4q-1.472-2.904-2.937-5.812l-1.653-3.27C377 501 377 501 376 498"/><path fill="#1b2027" d="M594 223c3.329 1.407 5.132 3.007 7.313 5.875l1.613 2.055c1.074 2.07 1.074 2.07.742 4.328L603 237l-1.207-2.047-1.606-2.703-1.582-2.672A76 76 0 0 0 594 223"/><path fill="#262b34" d="M421 384h2c-1.377 2.966-3.044 5.391-5 8a88 88 0 0 0-2 4c-.676-1.734-.676-1.734-1-4 1.145-2.14 1.145-2.14 2.813-4.25l1.644-2.14z"/><path fill="#2a2f38" d="M748 511c2.102.426 2.102.426 4 1a483 483 0 0 1-3.375 3l-1.898 1.688C745 518 745 518 743 518c1.275-2.844 2.451-5.138 5-7"/><path fill="#242931" d="M690 282c1.813.063 1.813.063 4 1 1.813 3.375 1.813 3.375 3 7l-1 3-.805-1.645-1.07-2.168-1.055-2.144c-1.136-2.255-1.136-2.255-3.07-5.043"/><path fill="#414b58" d="M422 629h2c-1.306 2.913-2.707 4.803-5 7l-2 3c.501-4.385 1.983-6.8 5-10"/><path fill="#252c33" d="m837 419 2 2a376 376 0 0 1-2.875 3l-1.617 1.688C833 427 833 427 831 427v-2h2l.875-1.875C835 421 835 421 837 419"/><path fill="#272d36" d="M668 595c-1.285 2.867-2.571 4.976-5 7h-2c3.138-7 3.138-7 7-7"/><path fill="#2b313b" d="m310 513 2 2c-.462 6.462-.462 6.462-3 9z"/><path fill="#1c1f26" d="m313 414 3 4 1.75 2.063L319 422l-1 3a217 217 0 0 1-2.5-3.25l-1.406-1.828C313 418 313 418 313 414"/><path fill="#252b34" d="m439 176 2 2c-4.625 4.875-4.625 4.875-8 6 1.443-3.366 3.333-5.51 6-8"/><path fill="#242a32" d="m714 825 2 1-7 7-2-2z"/><path fill="#21262f" d="M612 653c0 2 0 2-2.375 4.625C607 660 607 660 605 660c3.138-7 3.138-7 7-7"/><path fill="#272d35" d="M806 434c4.248.472 6.2 2.967 9 6-4.412 0-5.784-2.07-9-5z"/><path fill="#464e58" d="M345 242h1v6h-1z"/><path fill="#454d5a" d="m454 224 2 1-1 2z"/><path fill="#454d59" d="m418 210 1 4Z"/><path fill="#414954" d="m264 845 3 1Z"/><path fill="#3f4553" d="m225 809 1 2-2-1z"/><path fill="#434c59" d="m453 624 3 1Z"/><path fill="#444e5a" d="m449 624 3 1Z"/><path fill="#46505b" d="m433 624 3 1Z"/><path fill="#48505c" d="m508 542 3 1Zm-54 0 3 1Z"/><path fill="#47505c" d="m597 520 2 2h-2z"/><path fill="#4a535f" d="m473 501 3 1Z"/><path fill="#464e5a" d="m356 439 3 1Z"/><path fill="#454f59" d="M313 421h2l-1 2z"/><path fill="#4a535e" d="m565 311 3 1Z"/><path fill="#454d5a" d="M491 205h2l-1 2z"/><path fill="#434a57" d="m678 847 2 1Z"/><path fill="#414854" d="m267 846 2 1Z"/><path fill="#464f5a" d="m680 808 2 1Z"/><path fill="#474f5b" d="m560 691 2 1Z"/><path fill="#434b56" d="m463 663 2 1Z"/><path fill="#474f5b" d="m518 542 2 1Z"/><path fill="#47505b" d="m491 542 2 1Z"/><path fill="#474f5a" d="m425 541 2 1Z"/><path fill="#46505a" d="m336 483 2 1Z"/><path fill="#49505b" d="m778 432 2 1Z"/><path fill="#48505d" d="m766 399 2 1Z"/><path fill="#46505b" d="m339 361 2 1Z"/><path fill="#49525d" d="m501 311 2 1Z"/><path fill="#474f5a" d="m683 278 2 1Z"/><path fill="#464d57" d="m626 274 2 1Z"/><path fill="#444b56" d="m624 239 2 1Z"/><path fill="#454e5b" d="m454 219 2 1Z"/></svg>